REM MD5 d5c3e1cf990191ab6878d4bb8981ce63
FILE "Firestorm - Thunderhawk 2 (Europe) (En,Fr).bin" BINARY
  TRACK 01 MODE2/2352
    INDEX 01 00:00:00
  TRACK 02 AUDIO
    INDEX 00 07:11:34
    INDEX 01 07:13:34
  TRACK 03 AUDIO
    INDEX 00 09:01:32
    INDEX 01 09:03:32
  TRACK 04 AUDIO
    INDEX 00 14:57:42
    INDEX 01 14:59:42
  TRACK 05 AUDIO
    INDEX 00 20:11:32
    INDEX 01 20:13:32
  TRACK 06 AUDIO
    INDEX 00 24:38:61
    INDEX 01 24:40:61
  TRACK 07 AUDIO
    INDEX 00 29:13:13
    INDEX 01 29:15:13
  TRACK 08 AUDIO
    INDEX 00 33:13:16
    INDEX 01 33:15:16
  TRACK 09 AUDIO
    INDEX 00 36:40:67
    INDEX 01 36:42:67
  TRACK 10 AUDIO
    INDEX 00 39:08:01
    INDEX 01 39:10:01
  TRACK 11 AUDIO
    INDEX 00 39:25:06
    INDEX 01 39:27:06
  TRACK 12 AUDIO
    INDEX 00 39:54:03
    INDEX 01 39:56:03
  TRACK 13 AUDIO
    INDEX 00 40:19:16
    INDEX 01 40:21:16
  TRACK 14 AUDIO
    INDEX 00 40:36:66
    INDEX 01 40:38:66
  TRACK 15 AUDIO
    INDEX 00 40:58:67
    INDEX 01 41:00:67
  TRACK 16 AUDIO
    INDEX 00 41:16:17
    INDEX 01 41:18:17
  TRACK 17 AUDIO
    INDEX 00 41:37:54
    INDEX 01 41:39:54
  TRACK 18 AUDIO
    INDEX 00 42:11:19
    INDEX 01 42:13:19
  TRACK 19 AUDIO
    INDEX 00 42:29:19
    INDEX 01 42:31:19
  TRACK 20 AUDIO
    INDEX 00 42:52:00
    INDEX 01 42:54:00
  TRACK 21 AUDIO
    INDEX 00 43:08:25
    INDEX 01 43:10:25
  TRACK 22 AUDIO
    INDEX 00 43:24:70
    INDEX 01 43:26:70
  TRACK 23 AUDIO
    INDEX 00 43:40:43
    INDEX 01 43:42:43
  TRACK 24 AUDIO
    INDEX 00 44:02:63
    INDEX 01 44:04:63
  TRACK 25 AUDIO
    INDEX 00 44:25:43
    INDEX 01 44:27:43
  TRACK 26 AUDIO
    INDEX 00 44:42:06
    INDEX 01 44:44:06
  TRACK 27 AUDIO
    INDEX 00 44:57:70
    INDEX 01 44:59:70
  TRACK 28 AUDIO
    INDEX 00 45:08:16
    INDEX 01 45:10:16
  TRACK 29 AUDIO
    INDEX 00 45:21:31
    INDEX 01 45:23:31
  TRACK 30 AUDIO
    INDEX 00 45:32:08
    INDEX 01 45:34:08
  TRACK 31 AUDIO
    INDEX 00 45:47:33
    INDEX 01 45:49:33
  TRACK 32 AUDIO
    INDEX 00 46:02:39
    INDEX 01 46:04:39
  TRACK 33 AUDIO
    INDEX 00 46:21:48
    INDEX 01 46:23:48
  TRACK 34 AUDIO
    INDEX 00 46:34:28
    INDEX 01 46:36:28
  TRACK 35 AUDIO
    INDEX 00 46:55:12
    INDEX 01 46:57:12
  TRACK 36 AUDIO
    INDEX 00 47:13:15
    INDEX 01 47:15:15
  TRACK 37 AUDIO
    INDEX 00 47:23:22
    INDEX 01 47:25:22
  TRACK 38 AUDIO
    INDEX 00 47:36:26
    INDEX 01 47:38:26
  TRACK 39 AUDIO
    INDEX 00 47:48:31
    INDEX 01 47:50:31
  TRACK 40 AUDIO
    INDEX 00 48:08:11
    INDEX 01 48:10:11
  TRACK 41 AUDIO
    INDEX 00 48:17:60
    INDEX 01 48:19:60
  TRACK 42 AUDIO
    INDEX 00 48:34:33
    INDEX 01 48:36:33
  TRACK 43 AUDIO
    INDEX 00 48:57:29
    INDEX 01 48:59:29
  TRACK 44 AUDIO
    INDEX 00 49:08:55
    INDEX 01 49:10:55
  TRACK 45 AUDIO
    INDEX 00 49:28:53
    INDEX 01 49:30:53
  TRACK 46 AUDIO
    INDEX 00 50:02:57
    INDEX 01 50:04:57
  TRACK 47 AUDIO
    INDEX 00 50:30:58
    INDEX 01 50:32:58
  TRACK 48 AUDIO
    INDEX 00 51:14:64
    INDEX 01 51:16:64
  TRACK 49 AUDIO
    INDEX 00 51:39:17
    INDEX 01 51:41:17
  TRACK 50 AUDIO
    INDEX 00 51:59:27
    INDEX 01 52:01:27
  TRACK 51 AUDIO
    INDEX 00 52:22:43
    INDEX 01 52:24:43
  TRACK 52 AUDIO
    INDEX 00 52:57:45
    INDEX 01 52:59:45
  TRACK 53 AUDIO
    INDEX 00 53:20:61
    INDEX 01 53:22:61
  TRACK 54 AUDIO
    INDEX 00 53:52:10
    INDEX 01 53:54:10
  TRACK 55 AUDIO
    INDEX 00 54:11:68
    INDEX 01 54:13:68
  TRACK 56 AUDIO
    INDEX 00 54:30:59
    INDEX 01 54:32:59
  TRACK 57 AUDIO
    INDEX 00 54:48:45
    INDEX 01 54:50:45
  TRACK 58 AUDIO
    INDEX 00 55:12:08
    INDEX 01 55:14:08
  TRACK 59 AUDIO
    INDEX 00 55:38:60
    INDEX 01 55:40:60
  TRACK 60 AUDIO
    INDEX 00 55:57:17
    INDEX 01 55:59:17
  TRACK 61 AUDIO
    INDEX 00 56:12:72
    INDEX 01 56:14:72
  TRACK 62 AUDIO
    INDEX 00 56:25:28
    INDEX 01 56:27:28
  TRACK 63 AUDIO
    INDEX 00 56:40:40
    INDEX 01 56:42:40
  TRACK 64 AUDIO
    INDEX 00 56:52:08
    INDEX 01 56:54:08
  TRACK 65 AUDIO
    INDEX 00 57:08:59
    INDEX 01 57:10:59
  TRACK 66 AUDIO
    INDEX 00 57:22:34
    INDEX 01 57:24:34
  TRACK 67 AUDIO
    INDEX 00 57:42:70
    INDEX 01 57:44:70
  TRACK 68 AUDIO
    INDEX 00 57:56:39
    INDEX 01 57:58:39
  TRACK 69 AUDIO
    INDEX 00 58:20:58
    INDEX 01 58:22:58
  TRACK 70 AUDIO
    INDEX 00 58:36:03
    INDEX 01 58:38:03
  TRACK 71 AUDIO
    INDEX 00 58:47:21
    INDEX 01 58:49:21
  TRACK 72 AUDIO
    INDEX 00 58:59:46
    INDEX 01 59:01:46
  TRACK 73 AUDIO
    INDEX 00 59:12:29
    INDEX 01 59:14:29
  TRACK 74 AUDIO
    INDEX 00 59:31:72
    INDEX 01 59:33:72
  TRACK 75 AUDIO
    INDEX 00 59:42:05
    INDEX 01 59:44:05
  TRACK 76 AUDIO
    INDEX 00 60:01:37
    INDEX 01 60:03:37
  TRACK 77 AUDIO
    INDEX 00 60:29:40
    INDEX 01 60:31:40
  TRACK 78 AUDIO
    INDEX 00 60:41:62
    INDEX 01 60:43:62
REM LEADOUT 63:44:48
